<svg width="652" height="652" viewBox="0 0 652 652" fill="none" xmlns="http://www.w3.org/2000/svg">
<path d="M611.39 86.6737L611.74 86.3165L611.383 85.9665L589.898 64.926L651.5 1.23612V620.226H547.925L584.343 114.376C593.552 104.906 602.567 95.6723 611.39 86.6737ZM650.821 0.5L589.184 64.2263L567.123 42.6217L566.773 42.2789L566.424 42.6219C557.434 51.4343 548.203 60.4397 538.731 69.6385L30.6767 103.164V0.5H650.821ZM610.326 86.3309C601.879 94.9473 593.255 103.779 584.455 112.827L587.743 67.1545L589.203 65.6449L610.326 86.3309ZM566.774 43.679L588.489 64.9451L587.032 66.4512L540.271 69.5369C549.326 60.7405 558.161 52.1213 566.774 43.679ZM586.717 67.4742L583.372 113.94C516.091 183.134 438.539 264.874 350.964 359.037C251.432 466.056 160.655 563.592 78.6308 651.28L0.72167 573.19C89.8698 491.166 187.954 400.752 294.975 301.402C389.053 214.227 470.45 137.338 539.164 70.6121L586.717 67.4742Z" fill="black" stroke="black"/>
</svg>
